<?xml version="1.0" encoding="UTF-8"?><svg id="Calque_1" xmlns="http://www.w3.org/2000/svg" viewBox="0 0 750 450"><defs><style>.cls-1{fill:#2d3236;}.cls-1,.cls-2,.cls-3{stroke-width:0px;}.cls-2{fill:#aa7229;}.cls-4{fill:none;stroke:#aa7229;stroke-miterlimit:10;}.cls-3{fill:#fff;}</style></defs><circle class="cls-4" cx="381.93" cy="225.26" r="221.74"/><circle class="cls-1" cx="381.93" cy="225.26" r="202.91"/><path class="cls-2" d="M372.56,388.33v-198.27c0-12.63-4.54-15.22-26.89-16.52v-2.27h153.89l10.69,53.45h-2.59c-15.87-38.87-28.19-48.27-64.47-48.27h-45.68v108.53h41.14c29.15,0,35.96-11.01,41.14-39.53h2.27v85.53h-2.27c-5.19-30.13-11.99-40.82-41.14-40.82h-41.14v97.84c0,12.96,4.54,15.55,34.66,16.84v2.27h-86.5v-2.27c22.36-1.3,26.89-3.89,26.89-16.52Z"/><path class="cls-3" d="M265.18,169.5c0-66.62,50.78-112.99,109.47-112.99,42.26,0,61.05,15.85,67.8,15.85,3.81,0,6.46-2.64,7.63-12.91h2.35l7.34,63.98h-2.05c-17.02-45.78-50.19-61.92-83.06-61.92-46.36,0-83.64,38.15-83.64,97.73,0,67.21,39.62,105.66,89.22,105.66,36.1,0,64.86-22.6,81.89-56.06l2.93,1.17c-17.32,38.45-51.06,66.04-97.73,66.04-57.23,0-102.13-43.43-102.13-106.54Z"/></svg>