<?xml version="1.0" encoding="UTF-8"?><svg id="Calque_1" xmlns="http://www.w3.org/2000/svg" viewBox="0 0 750 450"><defs><style>.cls-1{fill:#1d1d1b;}.cls-1,.cls-2{stroke-width:0px;}.cls-3{stroke-width:.3px;}.cls-3,.cls-4{fill:none;stroke:#aa7229;stroke-miterlimit:10;}.cls-2{fill:#aa7229;}</style></defs><path class="cls-1" d="M223.57,229.51l-5.22-14.29h-17.15l-3.93,10.65c-2.21,5.86-1,8.72,5.93,9.15v.57h-16.37v-.57c3.65-.43,6.08-2.57,8.79-9.58l13.01-35.24-1.64-4.22c2.5-.57,5.29-1.93,6.79-3.86h.5c.64,2.5,1,3.57,2.79,8.22l13.37,35.81c2.72,7,3.86,8.43,8.5,8.86v.57h-20.16v-.57c5.86-.36,6.08-1.93,4.79-5.5ZM217.78,213.78l-8.08-22.01-8,22.01h16.08Z"/><path class="cls-1" d="M240.8,217.14v-29.09c0-2.93-1-3.65-5.79-3.93v-.57h19.08v.57c-4.72.29-5.72,1-5.72,3.93v28.66c0,12.22,6.36,17.08,14.94,17.08,7.93,0,14.65-4.15,14.65-16.94v-24.59c0-5.86-2.29-7.72-8.65-8.15v-.57h17.58v.57c-5.07.43-7.36,2.29-7.36,8.15v24.59c0,13.79-7.58,19.44-19.44,19.44s-19.3-5.79-19.3-19.16Z"/><path class="cls-1" d="M301.83,210.42c0-15.94,12.15-27.59,27.45-27.59,10.08,0,14.72,3.36,16.51,3.36,1.07,0,1.71-.64,2.22-2.64h.57l1.93,16.58h-.57c-4.86-11.72-12.87-16.01-20.66-16.01-10.65,0-18.8,8.93-18.8,23.01,0,16.72,9.51,25.8,21.01,25.8,8.43,0,15.44-5.08,19.37-13.08l.86.43c-4.36,9.51-12.86,16.01-24.51,16.01-14.79,0-25.37-10.94-25.37-25.87Z"/><path class="cls-1" d="M355.14,210.14c0-16.3,12.01-27.3,27.02-27.3s26.23,10.51,26.23,26.16-12.15,27.3-27.23,27.3-26.02-10.51-26.02-26.16ZM382.59,235.01c9.79,0,17.08-9.29,17.08-23.59s-7.43-27.3-19.01-27.3c-9.58,0-16.8,9.36-16.8,23.59s7.43,27.3,18.73,27.3Z"/><path class="cls-1" d="M417.18,231.08v-43.03c0-2.93-1-3.65-5.72-3.93v-.57h36.17l2.36,12.29h-.57c-4.07-8.86-7.72-11.15-16.08-11.15h-8.5v23.87h8.08c6.58,0,8.36-3.29,9.65-9.22h.64v20.01h-.64c-1.29-6.29-3.07-9.51-9.65-9.51h-8.08v21.37c0,2.22,1.21,3.22,3.5,3.22h7.08c7.22,0,11.44-2.43,16.8-11.86h.64l-3.93,13.01h-37.45v-.57c4.72-.29,5.72-1,5.72-3.93Z"/><path class="cls-1" d="M460.13,217.14v-29.09c0-2.93-1-3.65-5.79-3.93v-.57h19.08v.57c-4.72.29-5.72,1-5.72,3.93v28.66c0,12.22,6.36,17.08,14.94,17.08,7.93,0,14.65-4.15,14.65-16.94v-24.59c0-5.86-2.29-7.72-8.65-8.15v-.57h17.58v.57c-5.07.43-7.36,2.29-7.36,8.15v24.59c0,13.79-7.58,19.44-19.44,19.44s-19.3-5.79-19.3-19.16Z"/><path class="cls-1" d="M513.44,231.08v-43.03c0-2.93-.93-3.65-5.72-3.93v-.57h18.58c13.22,0,20.08,4.29,20.08,12.44s-7.08,11.22-13.08,12.72l10.43,15.87c4.86,7.58,7.65,10.15,10.58,10.43v.57c-1.29.14-3.86.29-5.72.29-4.72,0-7.65-.93-11.65-7.86l-9.15-15.29c-1.5-2.57-2.14-2.86-3.65-2.86h-3.07v21.23c0,2.93,1,3.64,6.65,3.93v.57h-20.01v-.57c4.79-.29,5.72-1,5.72-3.93ZM525.16,208.78c7.86,0,13.29-4.36,13.29-11.51,0-8.15-4.93-12.58-14.08-12.58h-3.29v24.09h4.07Z"/><path class="cls-1" d="M125.73,316.84v-43.03c0-2.93-1-3.65-5.72-3.93v-.57h21.3c17.3,0,29.59,9.72,29.59,25.44s-13.87,26.59-30.45,26.59h-20.44v-.57c4.72-.29,5.72-1,5.72-3.93ZM141.53,320.2c11.51,0,20.66-8.58,20.66-23.01s-8.43-26.73-22.08-26.73h-6.72v45.38c0,3.14,1.36,4.36,8.15,4.36Z"/><path class="cls-1" d="M179.62,316.84v-43.03c0-2.93-1-3.65-5.72-3.93v-.57h36.17l2.36,12.29h-.57c-4.07-8.86-7.72-11.15-16.08-11.15h-8.5v23.87h8.08c6.58,0,8.36-3.29,9.65-9.22h.64v20.01h-.64c-1.29-6.29-3.07-9.51-9.65-9.51h-8.08v21.37c0,2.22,1.21,3.22,3.5,3.22h7.08c7.22,0,11.44-2.43,16.8-11.86h.64l-3.93,13.01h-37.45v-.57c4.72-.29,5.72-1,5.72-3.93Z"/><path class="cls-1" d="M237.65,316.84v-43.03c0-2.93-1-3.65-5.72-3.93v-.57h19.08v.57c-4.72.29-5.72,1-5.72,3.93v43.17c0,2.22,1.21,3.22,3.5,3.22h5.58c7.29,0,11.72-2.64,17.08-12.15h.57l-4,13.29h-36.09v-.57c4.72-.29,5.72-1.14,5.72-3.93Z"/><path class="cls-1" d="M307.55,315.27l-5.22-14.29h-17.15l-3.93,10.65c-2.22,5.86-1,8.72,5.93,9.15v.57h-16.37v-.57c3.65-.43,6.08-2.57,8.79-9.58l13.01-35.24-1.64-4.22c2.5-.57,5.29-1.93,6.79-3.86h.5c.64,2.5,1,3.57,2.79,8.22l13.37,35.81c2.72,7,3.86,8.43,8.51,8.86v.57h-20.16v-.57c5.86-.36,6.08-1.93,4.79-5.5ZM301.76,299.54l-8.08-22.01-8,22.01h16.08Z"/><path class="cls-1" d="M341.07,316.84v-43.03c0-2.93-1-3.65-5.72-3.93v-.57h34.88l2.36,12.29h-.57c-4.07-8.86-7.72-11.15-16.08-11.15h-7.22v23.87h7.36c6.58,0,8.36-3.29,9.65-9.22h.64v20.01h-.64c-1.29-6.29-3.07-9.51-9.65-9.51h-7.36v21.16c0,2.93,1,3.72,7.43,4v.57h-20.8v-.57c4.72-.29,5.72-1,5.72-3.93Z"/><path class="cls-1" d="M380.8,316.84v-43.03c0-2.93-.93-3.65-5.72-3.93v-.57h18.58c13.22,0,20.08,4.29,20.08,12.44s-7.08,11.22-13.08,12.72l10.43,15.87c4.86,7.58,7.65,10.15,10.58,10.44v.57c-1.29.14-3.86.29-5.72.29-4.72,0-7.65-.93-11.65-7.86l-9.15-15.29c-1.5-2.57-2.14-2.86-3.65-2.86h-3.07v21.23c0,2.93,1,3.65,6.65,3.93v.57h-20.01v-.57c4.79-.29,5.72-1,5.72-3.93ZM392.52,294.54c7.86,0,13.29-4.36,13.29-11.51,0-8.15-4.93-12.58-14.08-12.58h-3.29v24.09h4.07Z"/><path class="cls-1" d="M455.7,315.27l-5.22-14.29h-17.15l-3.93,10.65c-2.22,5.86-1,8.72,5.93,9.15v.57h-16.37v-.57c3.65-.43,6.08-2.57,8.79-9.58l13.01-35.24-1.64-4.22c2.5-.57,5.29-1.93,6.79-3.86h.5c.64,2.5,1,3.57,2.79,8.22l13.37,35.81c2.72,7,3.86,8.43,8.51,8.86v.57h-20.16v-.57c5.86-.36,6.08-1.93,4.79-5.5ZM449.91,299.54l-8.08-22.01-8,22.01h16.08Z"/><path class="cls-1" d="M478.42,312.62v-34.59c0-5.86-2.29-7.72-7.36-8.15v-.57h14.22l29.23,39.24v-30.52c0-5.86-2.29-7.72-9.36-8.15v-.57h18.37v.57c-5.07.43-7.36,2.29-7.36,8.15v44.03h-.64l-35.52-46.96v37.52c0,5.86,2.29,7.72,9.36,8.15v.57h-18.3v-.57c5.07-.43,7.36-2.29,7.36-8.15Z"/><path class="cls-1" d="M525.02,296.18c0-15.94,12.15-27.59,27.45-27.59,10.08,0,14.72,3.36,16.51,3.36,1.07,0,1.71-.64,2.22-2.64h.57l1.93,16.58h-.57c-4.86-11.72-12.87-16.01-20.66-16.01-10.65,0-18.8,8.93-18.8,23.01,0,16.72,9.51,25.8,21.01,25.8,8.43,0,15.44-5.07,19.37-13.08l.86.43c-4.36,9.51-12.86,16.01-24.51,16.01-14.79,0-25.37-10.94-25.37-25.87Z"/><path class="cls-1" d="M583.69,316.84v-43.03c0-2.93-1-3.65-5.72-3.93v-.57h36.17l2.36,12.29h-.57c-4.07-8.86-7.72-11.15-16.08-11.15h-8.5v23.87h8.08c6.58,0,8.36-3.29,9.65-9.22h.64v20.01h-.64c-1.29-6.29-3.07-9.51-9.65-9.51h-8.08v21.37c0,2.22,1.21,3.22,3.5,3.22h7.08c7.22,0,11.44-2.43,16.8-11.86h.64l-3.93,13.01h-37.45v-.57c4.72-.29,5.72-1,5.72-3.93Z"/><line class="cls-4" x1="100.63" y1="137.81" x2="659.93" y2="137.81"/><line class="cls-4" x1="99.36" y1="360.51" x2="658.67" y2="360.51"/><line class="cls-3" x1="125.91" y1="142.9" x2="637.16" y2="142.9"/><line class="cls-3" x1="123.39" y1="355.37" x2="634.64" y2="355.37"/><circle class="cls-4" cx="383.02" cy="89.64" r="39.85"/><circle class="cls-3" cx="383.02" cy="89.64" r="36.47"/><path class="cls-2" d="M381.33,118.95v-35.63c0-2.27-.82-2.74-4.83-2.97v-.41h27.66l1.92,9.61h-.47c-2.85-6.99-5.07-8.68-11.59-8.68h-8.21v19.51h7.39c5.24,0,6.46-1.98,7.39-7.1h.41v15.37h-.41c-.93-5.42-2.15-7.34-7.39-7.34h-7.39v17.58c0,2.33.82,2.79,6.23,3.03v.41h-15.55v-.41c4.02-.23,4.83-.7,4.83-2.97Z"/><path class="cls-2" d="M362.03,79.62c0-11.97,9.13-20.31,19.67-20.31,7.6,0,10.97,2.85,12.19,2.85.69,0,1.16-.47,1.37-2.32h.42l1.32,11.5h-.37c-3.06-8.23-9.02-11.13-14.93-11.13-8.33,0-15.03,6.86-15.03,17.56,0,12.08,7.12,18.99,16.04,18.99,6.49,0,11.66-4.06,14.72-10.07l.53.21c-3.11,6.91-9.18,11.87-17.56,11.87-10.29,0-18.36-7.81-18.36-19.15Z"/></svg>