<?xml version="1.0" encoding="UTF-8"?><svg id="Calque_1" xmlns="http://www.w3.org/2000/svg" viewBox="0 0 1500 185"><defs><style>.cls-1{fill:#000;stroke-width:0px;}.cls-2,.cls-3,.cls-4,.cls-5{fill:none;stroke:#000;stroke-miterlimit:10;}.cls-3,.cls-4{stroke-linecap:round;}.cls-3,.cls-5{stroke-width:6px;}.cls-4{stroke-width:3px;}</style></defs><line class="cls-3" x1="171.37" y1="71.55" x2="159.45" y2="56.58"/><line class="cls-3" x1="172.94" y1="45.85" x2="184.85" y2="60.82"/><path class="cls-5" d="M159.45,56.58c-2.96-3.72-2.35-9.14,1.38-12.11s9.14-2.35,12.11,1.38"/><path class="cls-3" d="M178.02,66.07c2.96,3.72,8.38,4.34,12.11,1.38,3.72-2.96,4.34-8.38,1.38-12.11"/><line class="cls-3" x1="166.22" y1="65.08" x2="179.7" y2="54.35"/><line class="cls-3" x1="174.4" y1="33.86" x2="191.35" y2="55.14"/><path class="cls-4" d="M165.85,54.3c-.76-.95-.6-2.33.35-3.08s2.33-.6,3.08.35"/><circle class="cls-2" cx="176.92" cy="54.26" r="38.01"/><line class="cls-3" x1="616.66" y1="94.87" x2="622.56" y2="113.07"/><line class="cls-3" x1="606.16" y1="118.38" x2="600.27" y2="100.18"/><path class="cls-5" d="M622.56,113.07c1.47,4.53-1.02,9.39-5.54,10.85s-9.39-1.02-10.85-5.54"/><path class="cls-3" d="M608.51,97.67c-1.47-4.53-6.33-7.01-10.85-5.54-4.53,1.47-7.01,6.33-5.54,10.85"/><line class="cls-3" x1="619.21" y1="102.74" x2="602.82" y2="108.05"/><line class="cls-3" x1="600.57" y1="129.1" x2="592.19" y2="103.22"/><path class="cls-1" d="M611.74,112.32l1.17.38c.32.1.67,0,.87-.28l.72-.99c.16-.22.52-.11.52.17v1.23c0,.34.21.63.53.74l1.17.38c.26.09.26.46,0,.54l-1.17.38c-.32.1-.54.4-.54.74v1.23c0,.28-.36.39-.52.17l-.72-.99c-.2-.27-.55-.39-.87-.28l-1.17.38c-.26.09-.48-.22-.32-.44l.72-.99c.2-.27.2-.64,0-.91l-.72-.99c-.16-.22.06-.53.32-.44Z"/><circle class="cls-2" cx="605.39" cy="109.12" r="38.01"/><line class="cls-3" x1="1203.05" y1="120.63" x2="1218.03" y2="132.53"/><line class="cls-3" x1="1207.31" y1="146.03" x2="1192.33" y2="134.13"/><path class="cls-5" d="M1218.03,132.53c3.73,2.96,4.35,8.38,1.39,12.11s-8.38,4.35-12.11,1.39"/><path class="cls-3" d="M1197.8,127.47c-3.73-2.96-9.15-2.34-12.11,1.39s-2.34,9.15,1.39,12.11"/><line class="cls-3" x1="1209.53" y1="125.78" x2="1198.81" y2="139.27"/><line class="cls-3" x1="1208.58" y1="158.04" x2="1187.28" y2="141.12"/><circle class="cls-1" cx="1211.46" cy="138.32" r="2.68"/><circle class="cls-2" cx="1201.54" cy="138.73" r="38.01"/><line class="cls-3" x1="30.55" y1="123.77" x2="45.49" y2="111.82"/><line class="cls-3" x1="56.26" y1="125.28" x2="41.32" y2="137.23"/><path class="cls-5" d="M45.49,111.82c3.72-2.97,9.14-2.37,12.11,1.35s2.37,9.14-1.35,12.11"/><path class="cls-3" d="M36.05,130.41c-3.72,2.97-4.32,8.39-1.35,12.11,2.97,3.72,8.39,4.32,12.11,1.35"/><line class="cls-3" x1="37.01" y1="118.6" x2="47.78" y2="132.06"/><line class="cls-3" x1="68.26" y1="126.72" x2="47.01" y2="143.71"/><path class="cls-1" d="M48.62,122.21l-.06-1.23c-.02-.34-.24-.62-.57-.71l-1.18-.33c-.27-.07-.28-.45-.02-.54l1.15-.43c.31-.12.52-.43.5-.76l-.06-1.23c-.01-.28.34-.41.51-.19l.77.96c.21.26.56.36.88.24l1.15-.43c.26-.1.49.19.34.43l-.68,1.03c-.18.28-.17.65.04.91l.77.96c.17.22-.03.53-.3.45l-1.18-.33c-.32-.09-.67.04-.85.32l-.68,1.03c-.15.23-.51.13-.53-.14Z"/><circle class="cls-2" cx="47.86" cy="129.28" r="38.01"/><line class="cls-3" x1="273.75" y1="142.81" x2="273.75" y2="123.68"/><line class="cls-3" x1="290.99" y1="123.68" x2="290.99" y2="142.81"/><path class="cls-5" d="M273.75,123.68c0-4.76,3.86-8.62,8.62-8.62s8.62,3.86,8.62,8.62"/><path class="cls-3" d="M282.37,142.66c0,4.76,3.86,8.62,8.62,8.62s8.62-3.86,8.62-8.62"/><line class="cls-3" x1="273.75" y1="134.53" x2="290.99" y2="134.53"/><line class="cls-3" x1="299.6" y1="115.2" x2="299.6" y2="142.41"/><circle class="cls-1" cx="282.37" cy="125.22" r="2.68"/><circle class="cls-2" cx="288.87" cy="132.73" r="38.01"/><line class="cls-3" x1="1270.88" y1="69.9" x2="1253.46" y2="61.99"/><line class="cls-3" x1="1260.58" y1="46.3" x2="1278" y2="54.2"/><path class="cls-5" d="M1253.46,61.99c-4.33-1.97-6.25-7.07-4.29-11.41,1.97-4.33,7.07-6.25,11.41-4.29"/><path class="cls-3" d="M1274.31,61.99c4.33,1.97,9.44.05,11.41-4.29,1.97-4.33.05-9.44-4.29-11.41"/><line class="cls-3" x1="1263.34" y1="66.48" x2="1270.46" y2="50.79"/><line class="cls-3" x1="1256.42" y1="34.95" x2="1281.2" y2="46.19"/><path class="cls-1" d="M1261.3,54.5l-1.07.61c-.29.17-.44.5-.38.83l.25,1.2c.06.27-.27.46-.47.27l-.91-.83c-.25-.23-.61-.27-.91-.1l-1.07.61c-.24.14-.52-.12-.4-.37l.51-1.12c.14-.31.07-.67-.18-.89l-.91-.83c-.2-.19-.05-.53.23-.5l1.22.14c.33.04.65-.14.79-.45l.51-1.12c.11-.25.49-.21.54.06l.25,1.2c.07.33.34.58.67.62l1.22.14c.28.03.35.4.11.53Z"/><circle class="cls-2" cx="1267.95" cy="51.97" r="38.01"/><line class="cls-3" x1="990.19" y1="70.28" x2="985.05" y2="88.7"/><line class="cls-3" x1="968.45" y1="84.07" x2="973.59" y2="65.65"/><path class="cls-5" d="M985.05,88.7c-1.28,4.58-6.03,7.26-10.62,5.98-4.58-1.28-7.26-6.03-5.98-10.62"/><path class="cls-3" d="M981.85,68.1c1.28-4.58-1.4-9.34-5.98-10.62-4.58-1.28-9.34,1.4-10.62,5.98"/><line class="cls-3" x1="987.96" y1="78.24" x2="971.36" y2="73.61"/><line class="cls-3" x1="957.87" y1="89.92" x2="965.18" y2="63.71"/><path class="cls-4" d="M979.45,84.86c-.33,1.17-1.54,1.85-2.7,1.52-1.17-.33-1.85-1.54-1.52-2.7"/><circle class="cls-2" cx="972.92" cy="75.92" r="38.01"/><line class="cls-3" x1="427.23" y1="73.07" x2="425.84" y2="53.99"/><line class="cls-3" x1="443.03" y1="52.74" x2="444.42" y2="71.82"/><path class="cls-5" d="M425.84,53.99c-.34-4.75,3.22-8.87,7.97-9.22,4.75-.34,8.87,3.22,9.22,7.97"/><path class="cls-3" d="M435.81,72.3c.34,4.75,4.47,8.32,9.22,7.97s8.32-4.47,7.97-9.22"/><line class="cls-3" x1="426.63" y1="64.82" x2="443.82" y2="63.57"/><line class="cls-3" x1="451.01" y1="43.67" x2="452.98" y2="70.8"/><path class="cls-4" d="M432.41,55.71c-.09-1.21.82-2.26,2.03-2.35s2.26.82,2.35,2.03"/><circle class="cls-2" cx="441.57" cy="61.93" r="38.01"/><line class="cls-3" x1="760.59" y1="54.97" x2="754.7" y2="36.77"/><line class="cls-3" x1="771.09" y1="31.46" x2="776.99" y2="49.66"/><path class="cls-5" d="M754.7,36.77c-1.47-4.53,1.02-9.39,5.54-10.85s9.39,1.02,10.85,5.54"/><path class="cls-3" d="M768.75,52.18c1.47,4.53,6.33,7.01,10.85,5.54,4.53-1.47,7.01-6.33,5.54-10.85"/><line class="cls-3" x1="758.04" y1="47.1" x2="774.44" y2="41.79"/><line class="cls-3" x1="776.68" y1="20.75" x2="785.06" y2="46.63"/><path class="cls-1" d="M765.52,37.52l-1.17-.38c-.32-.1-.67,0-.87.28l-.72.99c-.16.22-.52.11-.52-.17v-1.23c0-.34-.21-.63-.53-.74l-1.17-.38c-.26-.09-.26-.46,0-.54l1.17-.38c.32-.1.54-.4.54-.74v-1.23c0-.28.36-.39.52-.17l.72.99c.2.27.55.39.87.28l1.17-.38c.26-.09.48.22.32.44l-.72.99c-.2.27-.2.64,0,.91l.72.99c.16.22-.06.53-.32.44Z"/><circle class="cls-2" cx="771.87" cy="40.73" r="38.01"/><line class="cls-3" x1="1426.75" y1="123.81" x2="1426.75" y2="104.68"/><line class="cls-3" x1="1443.99" y1="104.68" x2="1443.99" y2="123.81"/><path class="cls-5" d="M1426.75,104.68c0-4.76,3.86-8.62,8.62-8.62s8.62,3.86,8.62,8.62"/><path class="cls-3" d="M1435.37,123.66c0,4.76,3.86,8.62,8.62,8.62s8.62-3.86,8.62-8.62"/><line class="cls-3" x1="1426.75" y1="115.53" x2="1443.99" y2="115.53"/><line class="cls-3" x1="1452.6" y1="96.2" x2="1452.6" y2="123.41"/><circle class="cls-1" cx="1435.37" cy="106.22" r="2.68"/><circle class="cls-2" cx="1441.87" cy="113.73" r="38.01"/></svg>