<?xml version="1.0" encoding="UTF-8"?><svg id="Calque_2" xmlns="http://www.w3.org/2000/svg" viewBox="0 0 2108 167.5"><defs><style>.cls-1,.cls-2,.cls-3{stroke-linecap:round;}.cls-1,.cls-2,.cls-3,.cls-4,.cls-5,.cls-6{stroke:#fff;stroke-miterlimit:10;}.cls-1,.cls-2,.cls-4,.cls-5{fill:none;}.cls-1,.cls-5{stroke-width:6px;}.cls-2,.cls-3{stroke-width:3px;}.cls-3,.cls-6{fill:#fff;}</style></defs><line class="cls-1" x1="301.39" y1="62.53" x2="289.48" y2="47.57"/><line class="cls-1" x1="302.96" y1="36.83" x2="314.87" y2="51.8"/><path class="cls-5" d="M289.48,47.57c-2.96-3.72-2.35-9.14,1.38-12.11s9.14-2.35,12.11,1.38"/><path class="cls-1" d="M308.04,57.06c2.96,3.72,8.38,4.34,12.11,1.38,3.72-2.96,4.34-8.38,1.38-12.11"/><line class="cls-1" x1="296.24" y1="56.06" x2="309.72" y2="45.33"/><line class="cls-1" x1="304.43" y1="24.84" x2="321.37" y2="46.13"/><path class="cls-2" d="M295.87,45.29c-.76-.95-.6-2.33.35-3.08s2.33-.6,3.08.35"/><circle class="cls-4" cx="306.94" cy="45.24" r="38.01"/><line class="cls-1" x1="43.11" y1="93.75" x2="58.05" y2="81.8"/><line class="cls-1" x1="68.81" y1="95.26" x2="53.87" y2="107.21"/><path class="cls-5" d="M58.05,81.8c3.72-2.97,9.14-2.37,12.11,1.35,2.97,3.72,2.37,9.14-1.35,12.11"/><path class="cls-1" d="M48.6,100.39c-3.72,2.97-4.32,8.39-1.35,12.11s8.39,4.32,12.11,1.35"/><line class="cls-1" x1="49.57" y1="88.59" x2="60.33" y2="102.04"/><line class="cls-1" x1="80.81" y1="96.7" x2="59.56" y2="113.69"/><path class="cls-6" d="M61.17,92.19l-.06-1.23c-.02-.34-.24-.62-.57-.71l-1.18-.33c-.27-.07-.28-.45-.02-.54l1.15-.43c.31-.12.52-.43.5-.76l-.06-1.23c-.01-.28.34-.41.51-.19l.77.96c.21.26.56.36.88.24l1.15-.43c.26-.1.49.19.34.43l-.68,1.03c-.18.28-.17.65.04.91l.77.96c.17.22-.03.53-.3.45l-1.18-.33c-.32-.09-.67.04-.85.32l-.68,1.03c-.15.23-.51.13-.53-.14Z"/><circle class="cls-4" cx="60.42" cy="99.26" r="38.01"/><line class="cls-1" x1="813.26" y1="29.87" x2="819.16" y2="48.07"/><line class="cls-1" x1="802.76" y1="53.38" x2="796.87" y2="35.18"/><path class="cls-5" d="M819.16,48.07c1.47,4.53-1.02,9.39-5.54,10.85s-9.39-1.02-10.85-5.54"/><path class="cls-1" d="M805.11,32.67c-1.47-4.53-6.33-7.01-10.85-5.54-4.53,1.47-7.01,6.33-5.54,10.85"/><line class="cls-1" x1="815.81" y1="37.74" x2="799.42" y2="43.05"/><line class="cls-1" x1="797.18" y1="64.1" x2="788.79" y2="38.22"/><path class="cls-6" d="M808.34,47.32l1.17.38c.32.1.67,0,.87-.28l.72-.99c.16-.22.52-.11.52.17v1.23c0,.34.21.63.53.74l1.17.38c.26.09.26.46,0,.54l-1.17.38c-.32.1-.54.4-.54.74v1.23c0,.28-.36.39-.52.17l-.72-.99c-.2-.27-.55-.39-.87-.28l-1.17.38c-.26.09-.48-.22-.32-.44l.72-.99c.2-.27.2-.64,0-.91l-.72-.99c-.16-.22.06-.53.32-.44Z"/><circle class="cls-4" cx="801.99" cy="44.12" r="38.01"/><line class="cls-1" x1="1300.97" y1="69.9" x2="1283.55" y2="61.99"/><line class="cls-1" x1="1290.67" y1="46.3" x2="1308.09" y2="54.2"/><path class="cls-5" d="M1283.55,61.99c-4.33-1.97-6.25-7.07-4.29-11.41,1.97-4.33,7.07-6.25,11.41-4.29"/><path class="cls-1" d="M1304.4,61.99c4.33,1.97,9.44.05,11.41-4.29,1.97-4.33.05-9.44-4.29-11.41"/><line class="cls-1" x1="1293.43" y1="66.48" x2="1300.55" y2="50.79"/><line class="cls-1" x1="1286.51" y1="34.95" x2="1311.29" y2="46.19"/><path class="cls-6" d="M1291.39,54.5l-1.07.61c-.29.17-.44.5-.38.83l.25,1.2c.06.27-.27.46-.47.27l-.91-.83c-.25-.23-.61-.27-.91-.1l-1.07.61c-.24.14-.52-.12-.4-.37l.51-1.12c.14-.31.07-.67-.18-.89l-.91-.83c-.2-.19-.05-.53.23-.5l1.22.14c.33.04.65-.14.79-.45l.51-1.12c.11-.25.49-.21.54.06l.25,1.2c.07.33.34.58.67.62l1.22.14c.28.03.35.4.11.53Z"/><circle class="cls-4" cx="1298.04" cy="51.97" r="38.01"/><line class="cls-1" x1="1067.78" y1="70.28" x2="1062.64" y2="88.7"/><line class="cls-1" x1="1046.04" y1="84.07" x2="1051.18" y2="65.65"/><path class="cls-5" d="M1062.64,88.7c-1.28,4.58-6.03,7.26-10.62,5.98-4.58-1.28-7.26-6.03-5.98-10.62"/><path class="cls-1" d="M1059.44,68.1c1.28-4.58-1.4-9.34-5.98-10.62-4.58-1.28-9.34,1.4-10.62,5.98"/><line class="cls-1" x1="1065.55" y1="78.24" x2="1048.96" y2="73.61"/><line class="cls-1" x1="1035.46" y1="89.92" x2="1042.77" y2="63.71"/><path class="cls-3" d="M1057.04,84.86c-.33,1.17-1.54,1.85-2.7,1.52-1.17-.33-1.85-1.54-1.52-2.7"/><circle class="cls-4" cx="1050.51" cy="75.92" r="38.01"/><line class="cls-1" x1="541.12" y1="73.07" x2="539.74" y2="53.99"/><line class="cls-1" x1="556.93" y1="52.74" x2="558.31" y2="71.82"/><path class="cls-5" d="M539.74,53.99c-.34-4.75,3.22-8.87,7.97-9.22,4.75-.34,8.87,3.22,9.22,7.97"/><path class="cls-1" d="M549.7,72.3c.34,4.75,4.47,8.32,9.22,7.97s8.32-4.47,7.97-9.22"/><line class="cls-1" x1="540.52" y1="64.82" x2="557.71" y2="63.57"/><line class="cls-1" x1="564.91" y1="43.67" x2="566.87" y2="70.8"/><path class="cls-3" d="M546.3,55.71c-.09-1.21.82-2.26,2.03-2.35s2.26.82,2.35,2.03"/><circle class="cls-4" cx="555.47" cy="61.93" r="38.01"/><line class="cls-1" x1="1528.45" y1="104.81" x2="1528.45" y2="85.68"/><line class="cls-1" x1="1545.68" y1="85.68" x2="1545.68" y2="104.81"/><path class="cls-5" d="M1528.45,85.68c0-4.76,3.86-8.62,8.62-8.62s8.62,3.86,8.62,8.62"/><path class="cls-1" d="M1537.07,104.66c0,4.76,3.86,8.62,8.62,8.62s8.62-3.86,8.62-8.62"/><line class="cls-1" x1="1528.45" y1="96.53" x2="1545.68" y2="96.53"/><line class="cls-1" x1="1554.3" y1="77.2" x2="1554.3" y2="104.41"/><circle class="cls-6" cx="1537.07" cy="87.22" r="2.68"/><circle class="cls-4" cx="1543.56" cy="94.73" r="38.01"/><line class="cls-1" x1="1787.53" y1="79.07" x2="1775.62" y2="64.11"/><line class="cls-1" x1="1789.11" y1="53.37" x2="1801.02" y2="68.34"/><path class="cls-5" d="M1775.62,64.11c-2.96-3.72-2.35-9.14,1.38-12.11s9.14-2.35,12.11,1.38"/><path class="cls-1" d="M1794.19,73.6c2.96,3.72,8.38,4.34,12.11,1.38,3.72-2.96,4.34-8.38,1.38-12.11"/><line class="cls-1" x1="1782.38" y1="72.6" x2="1795.87" y2="61.87"/><line class="cls-1" x1="1790.57" y1="41.38" x2="1807.51" y2="62.67"/><path class="cls-2" d="M1782.01,61.83c-.76-.95-.6-2.33.35-3.08s2.33-.6,3.08.35"/><circle class="cls-4" cx="1793.09" cy="61.78" r="38.01"/><line class="cls-1" x1="2028.84" y1="58.4" x2="2027.45" y2="39.32"/><line class="cls-1" x1="2044.64" y1="38.08" x2="2046.03" y2="57.16"/><path class="cls-5" d="M2027.45,39.32c-.34-4.75,3.22-8.87,7.97-9.22s8.87,3.22,9.22,7.97"/><path class="cls-1" d="M2037.42,57.64c.34,4.75,4.47,8.32,9.22,7.97s8.32-4.47,7.97-9.22"/><line class="cls-1" x1="2028.24" y1="50.15" x2="2045.43" y2="48.91"/><line class="cls-1" x1="2052.62" y1="29" x2="2054.59" y2="56.14"/><path class="cls-3" d="M2034.02,41.05c-.09-1.21.82-2.26,2.03-2.35s2.26.82,2.35,2.03"/><circle class="cls-4" cx="2043.18" cy="47.26" r="38.01"/></svg>